<?xml version="1.0" encoding="UTF-8" standalone="no"?><!DOCTYPE svg PUBLIC "-//W3C//DTD SVG 1.1//EN" "http://www.w3.org/Graphics/SVG/1.1/DTD/svg11.dtd"><svg width="100%" height="100%" viewBox="0 0 3667 2592" version="1.1" xmlns="http://www.w3.org/2000/svg" xmlns:xlink="http://www.w3.org/1999/xlink" xml:space="preserve" xmlns:serif="http://www.serif.com/" style="fill-rule:evenodd;clip-rule:evenodd;stroke-linecap:round;stroke-linejoin:round;stroke-miterlimit:1.5;"><rect id="Chart" x="0" y="0" width="3666.67" height="2591.67" style="fill:none;"/><g id="Chart1" serif:id="Chart"><g id="Chart2" serif:id="Chart"><rect id="Third-bar" serif:id="Third bar" x="2292.92" y="695.89" width="591.667" height="1687.5" style="fill:none;"/><clipPath id="_clip1"><rect x="2292.92" y="695.89" width="591.667" height="1687.5"/></clipPath><g clip-path="url(#_clip1)"><rect id="Colour-fill" serif:id="Colour fill" x="2376.25" y="779.223" width="591.667" height="1687.5" style="fill:#8b76ad;"/></g><rect x="2292.92" y="695.89" width="591.667" height="1687.5" style="fill:none;stroke:#000;stroke-width:62.5px;"/><rect id="Second-bar" serif:id="Second bar" x="1434.24" y="1137.56" width="591.667" height="1245.83" style="fill:none;"/><clipPath id="_clip2"><rect x="1434.24" y="1137.56" width="591.667" height="1245.83"/></clipPath><g clip-path="url(#_clip2)"><rect id="Colour-fill1" serif:id="Colour fill" x="1350.91" y="1220.89" width="591.667" height="1245.83" style="fill:#80a1bd;"/></g><rect x="1434.24" y="1137.56" width="591.667" height="1245.83" style="fill:none;stroke:#000;stroke-width:62.5px;"/><rect id="First-bar" serif:id="First bar" x="575.56" y="333.39" width="591.667" height="2050" style="fill:none;"/><clipPath id="_clip3"><rect x="575.56" y="333.39" width="591.667" height="2050"/></clipPath><g clip-path="url(#_clip3)"><rect id="Colour-fill2" serif:id="Colour fill" x="658.894" y="250.056" width="591.667" height="2050" style="fill:#80e0da;"/></g><rect x="575.56" y="333.39" width="591.667" height="2050" style="fill:none;stroke:#000;stroke-width:62.5px;"/><path id="Chart-axis" serif:id="Chart axis" d="M144.496,2383.39l3156.67,-0" style="fill:none;stroke:#000;stroke-width:62.5px;"/></g><g id="Magnifying-glass" serif:id="Magnifying glass"><g id="Magnifying-glass1" serif:id="Magnifying glass"><path id="Glass" d="M2250.66,297.657c163.352,-136.253 406.593,-114.252 542.846,49.1c136.252,163.352 114.251,406.593 -49.101,542.846c-163.352,136.252 -406.593,114.251 -542.845,-49.101c-136.253,-163.352 -114.252,-406.593 49.1,-542.845Z" style="fill:none;stroke:#000;stroke-width:62.5px;"/><path id="Handle-connection" serif:id="Handle connection" d="M2744.41,889.603l162.803,195.182" style="fill:none;stroke:#000;stroke-width:62.5px;"/><path id="Handle" d="M3021.73,1082.67c-15.785,-18.924 -43.965,-21.473 -62.889,-5.688l-68.577,57.2c-18.925,15.785 -21.474,43.965 -5.689,62.889l281.749,337.786c15.785,18.924 43.964,21.473 62.889,5.688l68.577,-57.2c18.925,-15.785 21.473,-43.965 5.688,-62.889l-281.748,-337.786Z" style="fill:none;stroke:#000;stroke-width:62.5px;"/><path id="Highlight" d="M2743.62,418.429c-96.761,-135.911 -285.378,-167.647 -421.288,-70.887" style="fill:none;stroke:#000;stroke-width:62.5px;"/></g></g></g></svg>