<?xml version="1.0" encoding="UTF-8" standalone="no"?><!DOCTYPE svg PUBLIC "-//W3C//DTD SVG 1.1//EN" "http://www.w3.org/Graphics/SVG/1.1/DTD/svg11.dtd"><svg width="100%" height="100%" viewBox="0 0 5230 3759" version="1.1" xmlns="http://www.w3.org/2000/svg" xmlns:xlink="http://www.w3.org/1999/xlink" xml:space="preserve" xmlns:serif="http://www.serif.com/" style="fill-rule:evenodd;clip-rule:evenodd;stroke-linecap:round;stroke-linejoin:round;stroke-miterlimit:1.5;"><rect id="Design-site" serif:id="Design site" x="0" y="0" width="5229.17" height="3758.33" style="fill:none;"/><g id="Design-site1" serif:id="Design site"><g><g id="Site-template" serif:id="Site template"><path id="Browser" d="M4636.75,711.645c0,-65.395 -53.092,-118.487 -118.487,-118.487l-3812.27,0c-65.395,0 -118.487,53.092 -118.487,118.487l-0,2132.76c-0,65.395 53.092,118.487 118.487,118.487l3812.27,-0c65.395,-0 118.487,-53.092 118.487,-118.487l0,-2132.76Z" style="fill:#fff;"/><clipPath id="_clip1"><path id="Browser1" serif:id="Browser" d="M4636.75,711.645c0,-65.395 -53.092,-118.487 -118.487,-118.487l-3812.27,0c-65.395,0 -118.487,53.092 -118.487,118.487l-0,2132.76c-0,65.395 53.092,118.487 118.487,118.487l3812.27,-0c65.395,-0 118.487,-53.092 118.487,-118.487l0,-2132.76Z"/></clipPath><g clip-path="url(#_clip1)"><path id="Page" d="M4485.35,1584c-0,-46.34 -37.622,-83.962 -83.962,-83.962l-3578.52,-0c-46.34,-0 -83.962,37.622 -83.962,83.962l0,1511.32c0,46.34 37.622,83.962 83.962,83.962l3578.52,-0c46.34,-0 83.962,-37.622 83.962,-83.962l-0,-1511.32Z" style="fill:#e2ddeb;stroke:#513184;stroke-width:41.67px;"/><path id="Template-space-image" serif:id="Template space image" d="M3539.87,1258.62c-0,-11.973 -9.721,-21.694 -21.694,-21.694l-1812.55,0c-11.973,0 -21.694,9.721 -21.694,21.694l0,679.735c0,11.973 9.721,21.693 21.694,21.693l1812.55,0c11.973,0 21.694,-9.72 21.694,-21.693l-0,-679.735Z" style="fill:#c5bad6;"/><path d="M3623.2,1258.62c-0,-57.966 -47.061,-105.027 -105.027,-105.027l-1812.55,-0c-57.966,-0 -105.027,47.061 -105.027,105.027c-0,-0 -0,679.735 -0,679.735c-0,57.966 47.061,105.027 105.027,105.027l1812.55,-0c57.966,-0 105.027,-47.061 105.027,-105.027l-0,-679.735Zm-83.333,-0c-0,-11.973 -9.721,-21.694 -21.694,-21.694l-1812.55,0c-11.973,0 -21.694,9.721 -21.694,21.694l0,679.735c0,11.973 9.721,21.693 21.694,21.693l1812.55,0c11.973,0 21.694,-9.72 21.694,-21.693l-0,-679.735Z" style="fill:#513184;"/><path id="Templace-space-wide" serif:id="Templace space wide" d="M3112.83,2345.12c-0,-24.23 -19.672,-43.903 -43.903,-43.903l-2100.57,0c-24.23,0 -43.903,19.673 -43.903,43.903l0,790.252c0,24.23 19.673,43.903 43.903,43.903l2100.57,-0c24.231,-0 43.903,-19.673 43.903,-43.903l-0,-790.252Z" style="fill:#c5bad6;stroke:#513184;stroke-width:41.67px;"/><path id="Template-space-narrow" serif:id="Template space narrow" d="M4299.79,2345.12c-0,-24.23 -19.673,-43.903 -43.903,-43.903l-913.606,0c-24.231,0 -43.903,19.673 -43.903,43.903l0,790.252c0,24.23 19.672,43.903 43.903,43.903l913.606,-0c24.23,-0 43.903,-19.673 43.903,-43.903l-0,-790.252Z" style="fill:#c5bad6;stroke:#513184;stroke-width:41.67px;"/><circle id="Browser-button-1" serif:id="Browser button 1" cx="748.879" cy="751.039" r="38.863" style="fill:#513184;"/><circle id="Browser-button-2" serif:id="Browser button 2" cx="876.541" cy="751.039" r="38.863" style="fill:#e05206;"/><circle id="Browser-button-3" serif:id="Browser button 3" cx="1001.54" cy="751.039" r="38.863" style="fill:#00aae7;"/></g><path id="Browser2" serif:id="Browser" d="M4636.75,711.645c0,-65.395 -53.092,-118.487 -118.487,-118.487l-3812.27,0c-65.395,0 -118.487,53.092 -118.487,118.487l-0,2132.76c-0,65.395 53.092,118.487 118.487,118.487l3812.27,-0c65.395,-0 118.487,-53.092 118.487,-118.487l0,-2132.76Z" style="fill:none;stroke:#513184;stroke-width:41.67px;"/></g><g id="Dropping-Image" serif:id="Dropping Image"><path id="Shadow" d="M3006.97,327.507c-4.422,-23.824 -27.354,-39.575 -51.178,-35.153l-1673.76,310.699c-23.823,4.423 -39.575,27.355 -35.152,51.179l144.23,776.978c4.423,23.823 27.355,39.575 51.179,35.152l1673.76,-310.699c23.824,-4.422 39.575,-27.355 35.153,-51.178l-144.231,-776.978Z" style="fill-opacity:0.5;"/><path id="Image-component" serif:id="Image component" d="M3048.64,244.173c-4.423,-23.823 -27.355,-39.575 -51.178,-35.152l-1673.76,310.699c-23.824,4.422 -39.575,27.355 -35.153,51.178l144.231,776.978c4.422,23.824 27.355,39.575 51.178,35.153l1673.76,-310.699c23.823,-4.423 39.575,-27.355 35.152,-51.179l-144.23,-776.978Z" style="fill:#c5bad6;"/><clipPath id="_clip2"><path d="M3048.64,244.173c-4.423,-23.823 -27.355,-39.575 -51.178,-35.152l-1673.76,310.699c-23.824,4.422 -39.575,27.355 -35.153,51.178l144.231,776.978c4.422,23.824 27.355,39.575 51.178,35.153l1673.76,-310.699c23.823,-4.423 39.575,-27.355 35.152,-51.179l-144.23,-776.978Z"/></clipPath><g clip-path="url(#_clip2)"><path d="M1310.86,1193.09l603.62,-463.038l234.394,176.031l396.008,-435.563l774.55,413.964l17.067,251.451l-1873.61,374.093l-152.026,-316.938Z" style="fill:#513184;"/><path d="M2096.52,494.807c61.07,-11.337 119.856,29.041 131.193,90.112c11.336,61.07 -29.042,119.856 -90.112,131.193c-61.071,11.336 -119.857,-29.042 -131.194,-90.112c-11.336,-61.071 29.042,-119.857 90.113,-131.193Z" style="fill:#e05206;"/></g><path d="M3048.64,244.173c-4.423,-23.823 -27.355,-39.575 -51.178,-35.152l-1673.76,310.699c-23.824,4.422 -39.575,27.355 -35.153,51.178l144.231,776.978c4.422,23.824 27.355,39.575 51.178,35.153l1673.76,-310.699c23.823,-4.423 39.575,-27.355 35.152,-51.179l-144.23,-776.978Z" style="fill:none;stroke:#e05206;stroke-width:41.67px;"/></g></g><g id="Dropping-text" serif:id="Dropping text"><path id="Shadow1" serif:id="Shadow" d="M4817.77,3051.95c5.81,-15.402 -1.978,-32.623 -17.379,-38.433l-1916.95,-723.135c-15.402,-5.81 -32.623,1.977 -38.433,17.379l-189.487,502.31c-5.81,15.402 1.977,32.623 17.379,38.433l1916.95,723.135c15.402,5.81 32.623,-1.977 38.433,-17.379l189.488,-502.31Z" style="fill-opacity:0.5;"/><path id="Text-component" serif:id="Text component" d="M4776.1,2968.61c5.81,-15.401 -1.977,-32.623 -17.379,-38.433l-1916.95,-723.135c-15.402,-5.81 -32.624,1.978 -38.434,17.379l-189.487,502.311c-5.81,15.402 1.978,32.623 17.379,38.433l1916.95,723.135c15.401,5.81 32.623,-1.977 38.433,-17.379l189.487,-502.311Z" style="fill:#c5bad6;"/><clipPath id="_clip3"><path d="M4776.1,2968.61c5.81,-15.401 -1.977,-32.623 -17.379,-38.433l-1916.95,-723.135c-15.402,-5.81 -32.624,1.978 -38.434,17.379l-189.487,502.311c-5.81,15.402 1.978,32.623 17.379,38.433l1916.95,723.135c15.401,5.81 32.623,-1.977 38.433,-17.379l189.487,-502.311Z"/></clipPath><g clip-path="url(#_clip3)"><path d="M4512.33,2947.22c3.932,-10.424 -1.338,-22.08 -11.763,-26.012l-1595.61,-601.913c-10.425,-3.932 -22.081,1.338 -26.013,11.763l-14.25,37.775c-3.933,10.425 1.338,22.081 11.762,26.013l1595.61,601.913c10.424,3.932 22.08,-1.339 26.013,-11.763l14.25,-37.776Z" style="fill:#513184;"/><path d="M4538.97,3082.08c3.933,-10.424 -1.338,-22.08 -11.762,-26.013l-1663.46,-627.509c-10.425,-3.932 -22.081,1.338 -26.013,11.763l-14.25,37.775c-3.933,10.425 1.338,22.081 11.763,26.013l1663.46,627.509c10.425,3.933 22.081,-1.338 26.013,-11.762l14.25,-37.776Z" style="fill:#513184;"/><path d="M4298.03,3115.99c3.932,-10.424 -1.339,-22.08 -11.763,-26.012l-1463.74,-552.167c-10.424,-3.932 -22.08,1.338 -26.013,11.763l-14.25,37.775c-3.932,10.425 1.338,22.081 11.763,26.013l1463.74,552.167c10.424,3.932 22.08,-1.339 26.013,-11.763l14.25,-37.776Z" style="fill:#513184;"/><path d="M4324.47,3250.77c3.932,-10.424 -1.338,-22.08 -11.763,-26.013l-1531.39,-577.688c-10.424,-3.932 -22.08,1.338 -26.013,11.763l-14.25,37.775c-3.932,10.425 1.338,22.081 11.763,26.013l1531.39,577.688c10.425,3.933 22.081,-1.338 26.013,-11.762l14.25,-37.776Z" style="fill:#513184;"/></g><path d="M4776.1,2968.61c5.81,-15.401 -1.977,-32.623 -17.379,-38.433l-1916.95,-723.135c-15.402,-5.81 -32.624,1.978 -38.434,17.379l-189.487,502.311c-5.81,15.402 1.978,32.623 17.379,38.433l1916.95,723.135c15.401,5.81 32.623,-1.977 38.433,-17.379l189.487,-502.311Z" style="fill:none;stroke:#e05206;stroke-width:41.67px;"/></g></g></svg>