<?xml version="1.0" encoding="UTF-8" standalone="no"?><!DOCTYPE svg PUBLIC "-//W3C//DTD SVG 1.1//EN" "http://www.w3.org/Graphics/SVG/1.1/DTD/svg11.dtd"><svg width="100%" height="100%" viewBox="0 0 1755 1663" version="1.1" xmlns="http://www.w3.org/2000/svg" xmlns:xlink="http://www.w3.org/1999/xlink" xml:space="preserve" xmlns:serif="http://www.serif.com/" style="fill-rule:evenodd;clip-rule:evenodd;stroke-linecap:round;stroke-linejoin:round;stroke-miterlimit:1.5;"><rect id="Einstein-head" serif:id="Einstein head" x="0" y="0" width="1754.17" height="1658.44" style="fill:none;"/><g id="Hair"><path id="Hair1" serif:id="Hair" d="M533.654,1312.5c-0,0 -25.61,-25.397 -39.904,-20.833c-19.575,6.25 -45.821,44.444 -77.544,58.333c-30.394,13.307 -86.83,-5.257 -112.795,0c-17.421,3.527 -42.994,31.542 -42.994,31.542c-0,-0 2.609,-84.414 20.833,-102.375c16.405,-16.168 60.492,-6.251 66.667,-29.167c18.055,-67.005 41.666,-127.029 41.666,-127.029c0,0 -61.805,4.518 -83.333,22.862c-21.528,18.345 -20.139,62.207 -41.667,78.873c-38.648,1.164 -87.5,21.127 -87.5,21.127c0,0 -13.34,-62.161 45.834,-95.833c-4.731,-85.105 9.947,-156.64 91.666,-175c-57.365,-8.504 -74.785,-17.7 -112.5,-25c-34.018,4.786 -87.647,53.34 -145.833,-25c69.46,-21.716 156.467,-140.348 258.333,-108.333c-23.122,-68.929 -51.104,-74.758 -87.5,-100c-72.532,7.082 -146.044,8.813 -170.833,-66.667c111.187,4.201 122.917,-111.111 179.167,-129.167c50.685,-16.269 158.333,20.834 158.333,20.834c-0,-0 -67.225,-72.833 -200,-70.834c76.721,-74.53 212.5,-45.833 212.5,-45.833c-0,0 -50,-116.667 -50,-162.5c-0,-70.204 50,-112.5 50,-112.5c-0,0 -7.629,66.901 16.667,75c25,8.333 93.579,-41.667 133.333,-25c39.754,16.667 105.191,125 105.191,125c0,0 -4.885,-166.402 -92.691,-212.5c158.914,-43.768 223.178,120.833 223.178,120.833c-0,0 21.895,-82.554 51.822,-108.333c32.248,-27.778 116.667,-58.333 116.667,-58.333c-0,-0 -71.094,85.115 -62.5,162.5c71.54,-132.808 202.777,-143.056 229.166,-133.334c-70.481,49.954 -70.833,191.667 -70.833,191.667c-0,0 50.005,-110.712 87.5,-120.833c43.734,-11.806 96.566,24.884 124.902,25c26.729,0.109 46.076,-13.879 37.598,-75c105.572,72.916 20.833,262.5 20.833,262.5c0,-0 156.945,-31.25 195.834,37.5c-130.261,-9.517 -179.167,95.833 -179.167,95.833c-0,0 110.637,-60.323 150,-37.5c42.504,24.644 80.556,93.056 112.5,112.5c22.573,13.74 53.207,12.957 79.167,4.167c9.027,40.277 -26.389,70.139 -54.167,83.333c-27.778,13.194 -82.639,-20.139 -112.5,-4.167c-29.861,15.973 -66.667,100 -66.667,100c0,0 70.636,-26.376 91.667,-4.166c74.306,78.472 154.167,125 154.167,125c-0,-0 -36.582,35.333 -87.5,29.166c-45.17,-32.715 -140.973,-8.333 -150,20.834c111.509,23.728 68.75,114.583 95.833,154.166c20.087,29.359 66.667,83.334 66.667,83.334c-0,-0 -75.262,6.431 -108.334,-8.334c-31.87,-81.927 -125,-95.833 -125,-95.833c0,0 47.955,87.967 54.167,133.04c62.672,28.812 93.822,82.561 85.961,104.46c-53.533,-23.49 -89.612,35.964 -133.122,26.937c-43.51,-9.028 -99.795,-57.079 -127.937,-81.104" style="fill:#eee;stroke:#080000;stroke-width:20.83px;"/></g><g id="Face"><g id="Face1" serif:id="Face"><path id="Outline" d="M1023.81,1525c149.439,-37.101 218.255,-123.804 236.606,-204.167c20.139,-88.194 6.828,-246.191 -79.167,-291.666c-19.14,-95.819 -33.333,-300 -33.333,-300c-0,-0 -104.167,-91.667 -250,-91.667c-145.834,0 -250,91.667 -250,91.667c-0,-0 -14.193,204.181 -33.334,300c-85.995,45.475 -99.305,203.472 -79.166,291.666c18.35,80.363 87.167,167.066 236.605,204.167c19.963,32.159 57.812,69.042 125.895,66.667c68.082,2.375 105.932,-34.508 125.894,-66.667Z"/><clipPath id="_clip1"><path id="Outline1" serif:id="Outline" d="M1023.81,1525c149.439,-37.101 218.255,-123.804 236.606,-204.167c20.139,-88.194 6.828,-246.191 -79.167,-291.666c-19.14,-95.819 -33.333,-300 -33.333,-300c-0,-0 -104.167,-91.667 -250,-91.667c-145.834,0 -250,91.667 -250,91.667c-0,-0 -14.193,204.181 -33.334,300c-85.995,45.475 -99.305,203.472 -79.166,291.666c18.35,80.363 87.167,167.066 236.605,204.167c19.963,32.159 57.812,69.042 125.895,66.667c68.082,2.375 105.932,-34.508 125.894,-66.667Z"/></clipPath><g clip-path="url(#_clip1)"><rect id="Face-fill" serif:id="Face fill" x="485.417" y="600" width="820.833" height="1037.5" style="fill:#ffceb4;"/></g><path id="Outline2" serif:id="Outline" d="M1023.81,1525c149.439,-37.101 218.255,-123.804 236.606,-204.167c20.139,-88.194 6.828,-246.191 -79.167,-291.666c-19.14,-95.819 -33.333,-300 -33.333,-300c-0,-0 -104.167,-91.667 -250,-91.667c-145.834,0 -250,91.667 -250,91.667c-0,-0 -14.193,204.181 -33.334,300c-85.995,45.475 -99.305,203.472 -79.166,291.666c18.35,80.363 87.167,167.066 236.605,204.167c19.963,32.159 57.812,69.042 125.895,66.667c68.082,2.375 105.932,-34.508 125.894,-66.667Z" style="fill:none;stroke:#000;stroke-width:29.17px;"/><path id="Chin" d="M752.083,1479.17c0,-0 4.88,21.572 19.939,45.833c19.963,32.159 57.812,69.042 125.895,66.667c68.082,2.375 105.932,-34.508 125.894,-66.667c15.06,-24.261 19.939,-45.833 19.939,-45.833" style="fill:none;stroke:#000;stroke-width:29.17px;"/><g id="Mouth-left" serif:id="Mouth left"><path d="M669,1224.68c-0,-0 -23.29,-23.506 -30.97,-35.259c-6.996,-10.704 -15.113,-35.259 -15.113,-35.259" style="fill:none;stroke:#000;stroke-width:20.83px;"/><path d="M593.75,1189.43c-0,-0 17.885,-25.216 29.167,-35.259c11.282,-10.044 38.524,-25 38.524,-25" style="fill:none;stroke:#000;stroke-width:20.83px;"/></g><g id="Mouth-right" serif:id="Mouth right"><path d="M1116.92,1220.94c-0,-0 25.609,-26.424 34.247,-39.636c7.909,-12.097 17.581,-39.635 17.581,-39.635" style="fill:none;stroke:#000;stroke-width:20.83px;"/><path d="M1127.08,1116.67c0,-0 29.398,14.426 41.667,25c12.5,10.772 33.333,39.635 33.333,39.635" style="fill:none;stroke:#000;stroke-width:20.83px;"/></g><ellipse id="Left-eye" serif:id="Left eye" cx="775.125" cy="1051.02" rx="23.042" ry="32.318"/><ellipse id="Right-eye" serif:id="Right eye" cx="992.232" cy="1051.02" rx="23.042" ry="32.318"/><path id="Eye-top-left" serif:id="Eye top left" d="M710.417,950c-0,0 15.896,-10.518 25,-12.5c9.57,-2.083 32.422,0 32.422,0" style="fill:none;stroke:#080000;stroke-width:20.83px;"/><path id="Eye-top-right" serif:id="Eye top right" d="M1066.57,943.287c-0,0 -15.896,-10.518 -25,-12.5c-9.57,-2.083 -32.422,0 -32.422,0" style="fill:none;stroke:#080000;stroke-width:20.83px;"/></g></g><g id="Eye-brows" serif:id="Eye brows"><path id="Eyebrow-left" serif:id="Eyebrow left" d="M679.132,858.333c-1.389,-9.027 39.959,-70.833 64.618,-75c24.659,-4.166 81.944,40.973 83.333,50c1.389,9.028 -50.341,0 -75,4.167c-24.658,4.167 -71.562,29.861 -72.951,20.833Z" style="fill:#f6eeee;stroke:#080000;stroke-width:20.83px;"/><path id="Eyebrow-right" serif:id="Eyebrow right" d="M1093.44,858.333c1.389,-9.027 -39.959,-70.833 -64.618,-75c-24.658,-4.166 -81.944,40.973 -83.333,50c-1.389,9.028 50.341,0 75,4.167c24.658,4.167 71.562,29.861 72.951,20.833Z" style="fill:#f6eeee;stroke:#080000;stroke-width:20.83px;"/></g><g id="Tash"><path id="Tash1" serif:id="Tash" d="M1018.97,1429.23c56.888,-3.792 110.264,-11.075 133.114,-25.058c40.902,-25.03 49.306,-109.723 25,-141.667c-17.5,-23 -50.451,-42.563 -79.166,-45.833c-30.484,-3.473 -103.736,25 -103.736,25l-192.528,-0c-0,-0 -73.253,-28.473 -103.736,-25c-28.716,3.27 -61.667,22.833 -79.167,45.833c-24.306,31.944 -15.901,116.637 25,141.667c10.683,6.537 21.526,3.277 44.733,7.213l28.184,23.833l56.25,-6.046l19.011,13.972l24.973,-13.914l17.454,21.131l16.746,-41.662l15.502,45.595l23.16,-25.064l8.154,33.275l38.501,-50.221l23.417,29.417l12.272,-37.45l22.074,45.456l24.788,-20.477Z" style="fill:#e8dfdf;stroke:#000;stroke-width:29.17px;"/><path d="M679.132,1410.07c0,0 -14.091,-19.784 -18.715,-30.903c-5.897,-14.179 -16.667,-54.167 -16.667,-54.167" style="fill:none;stroke:#000;stroke-width:20.83px;"/><path d="M791.928,1443.14c-0,0 -30.732,-34.969 -38.762,-50.492c-6.689,-12.93 -9.416,-42.647 -9.416,-42.647" style="fill:none;stroke:#000;stroke-width:20.83px;"/><path d="M1019.47,1429.19c-0,0 18.629,-23.739 24.278,-37.524c6.13,-14.959 12.5,-52.23 12.5,-52.23" style="fill:none;stroke:#000;stroke-width:20.83px;"/><path d="M1077.59,1423.65c-0,0 29.668,-22.891 36.989,-39.333c8.249,-18.525 12.5,-71.814 12.5,-71.814" style="fill:none;stroke:#000;stroke-width:20.83px;"/><path d="M1077.59,1423.65c-0,0 40.547,-25.298 53.656,-39.333c11.688,-12.514 25,-44.877 25,-44.877" style="fill:none;stroke:#000;stroke-width:20.83px;"/></g><g id="Nose"><path id="Nose1" serif:id="Nose" d="M950.729,1142.96c26.165,21.975 43.452,53.211 43.452,86.569c-0,52.694 -43.135,82.974 -96.264,82.974c-53.13,0 -96.264,-30.28 -96.264,-82.974c-0,-28.842 12.923,-64.537 33.335,-86.569" style="fill:#ffceb4;stroke:#000;stroke-width:29.17px;"/></g></svg>